<?xml version="1.0" encoding="UTF-8"?>
<svg id="Layer_1" xmlns="http://www.w3.org/2000/svg" version="1.1" viewBox="0 0 778.76 90.34">
  <!-- Generator: Adobe Illustrator 29.0.0, SVG Export Plug-In . SVG Version: 2.1.0 Build 186)  -->
  <defs>
    <style>
      .st0 {
        fill: #fff;
      }
    </style>
  </defs>
  <path class="st0" d="M524.91,68.88l-1.08-5.12h-.26c-1.41,1.92-3.24,3.49-5.36,4.59-2.12.86-4.39,1.26-6.67,1.18-3.04.18-6.04-.79-8.4-2.73-2.1-2.05-3.2-4.92-3.01-7.86,0-7.25,5.8-11.05,17.39-11.41l6.11-.19v-2.15c.18-2.24-.47-4.47-1.83-6.26-1.56-1.47-3.68-2.2-5.81-2-3.54.11-7,1.01-10.14,2.65l-1.68-4.18c1.84-.98,3.79-1.74,5.81-2.26,2.11-.55,4.28-.82,6.46-.82,3.43-.28,6.83.74,9.54,2.86,2.26,2.48,3.38,5.8,3.08,9.15v24.56h-4.15ZM512.62,65.05c2.93.17,5.8-.84,7.99-2.8,2.02-2.07,3.08-4.9,2.91-7.79v-3.29l-5.45.24c-3.24-.1-6.45.58-9.36,2-1.9,1.19-2.99,3.32-2.84,5.55-.12,1.69.54,3.35,1.79,4.5,1.41,1.11,3.18,1.66,4.97,1.55v.04Z"/>
  <path class="st0" d="M554.53,69.49c-4.54.27-8.96-1.49-12.08-4.8-3.07-3.83-4.61-8.68-4.31-13.58-.33-5.01,1.2-9.97,4.31-13.93,3.2-3.4,7.76-5.2,12.42-4.89,1.74,0,3.48.19,5.19.56,1.41.27,2.77.71,4.07,1.31l-1.68,4.59c-1.28-.51-2.6-.91-3.94-1.21-1.23-.3-2.5-.46-3.77-.47-7.29,0-10.94,4.66-10.96,13.97-.23,3.59.72,7.15,2.69,10.16,1.88,2.42,4.84,3.75,7.9,3.55,3.18-.04,6.31-.69,9.23-1.94v4.82c-2.84,1.33-5.95,1.97-9.08,1.85Z"/>
  <path class="st0" d="M594.22,68.88l-1.08-5.12h-.26c-1.41,1.92-3.24,3.49-5.36,4.59-2.12.86-4.39,1.26-6.67,1.18-3.01.14-5.96-.86-8.27-2.8-2.11-2.05-3.22-4.92-3.04-7.86,0-7.25,5.8-11.05,17.39-11.41l6.11-.19v-2.15c.18-2.24-.47-4.47-1.83-6.26-1.56-1.47-3.68-2.2-5.81-2-3.55.14-7.03,1.08-10.16,2.76l-1.68-4.18c1.84-.98,3.79-1.74,5.81-2.26,2.07-.54,4.21-.81,6.35-.82,3.43-.28,6.83.74,9.54,2.86,2.28,2.47,3.41,5.8,3.1,9.15v24.52h-4.15ZM581.93,65.05c2.93.17,5.8-.84,7.99-2.8,2.02-2.07,3.08-4.9,2.91-7.79v-3.29l-5.45.24c-3.24-.1-6.45.58-9.36,2-1.9,1.18-3,3.32-2.86,5.55-.12,1.69.54,3.35,1.79,4.5,1.42,1.11,3.2,1.66,4.99,1.55v.04Z"/>
  <path class="st0" d="M633.94,64.02h-.3c-2.54,3.67-6.82,5.74-11.28,5.47-4.23.24-8.32-1.54-11.02-4.8-2.85-3.98-4.24-8.83-3.92-13.71-.3-4.91,1.08-9.78,3.92-13.8,2.68-3.3,6.78-5.12,11.02-4.89,4.4-.23,8.61,1.77,11.21,5.32h.43l-.24-2.6-.13-2.52v-14.66h5.45v51.06h-4.43l-.71-4.86ZM623.04,64.94c3.02.28,6-.84,8.09-3.04,1.91-2.89,2.79-6.34,2.5-9.79v-1.14c0-5.09-.85-8.73-2.54-10.91-2.03-2.32-5.05-3.53-8.12-3.25-2.93-.14-5.71,1.27-7.32,3.72-1.88,3.17-2.76,6.83-2.54,10.5-.25,3.64.63,7.27,2.52,10.4,1.72,2.34,4.5,3.66,7.4,3.51Z"/>
  <path class="st0" d="M665.8,69.49c-4.7.22-9.27-1.56-12.57-4.91-3.24-3.72-4.89-8.55-4.61-13.48-.26-4.97,1.27-9.86,4.31-13.8,2.84-3.36,7.08-5.21,11.47-5.02,4.07-.21,8.02,1.42,10.76,4.43,2.71,3.29,4.11,7.47,3.92,11.73v3.44h-24.75c-.15,3.49.99,6.9,3.21,9.6,2.25,2.3,5.4,3.51,8.61,3.29,3.9-.02,7.76-.83,11.34-2.37v4.74c-1.75.79-3.59,1.39-5.47,1.79-2.05.39-4.13.57-6.22.54ZM664.33,36.81c-2.61-.12-5.13.91-6.91,2.82-1.82,2.18-2.88,4.89-3.04,7.73h18.79c.19-2.81-.62-5.6-2.28-7.88-1.66-1.85-4.08-2.83-6.57-2.67Z"/>
  <path class="st0" d="M734.03,68.88v-23.42c.18-2.3-.47-4.59-1.83-6.46-1.48-1.54-3.58-2.34-5.7-2.15-2.83-.23-5.6.85-7.53,2.93-1.82,2.63-2.68,5.81-2.43,9v20.11h-5.42v-23.42c.18-2.3-.48-4.6-1.85-6.46-1.48-1.55-3.59-2.34-5.73-2.15-2.84-.25-5.63.89-7.49,3.06-1.85,3.01-2.69,6.53-2.39,10.05v18.92h-5.45v-35.97h4.43l.88,4.91h.26c1.02-1.74,2.51-3.16,4.31-4.09,1.94-1.01,4.1-1.52,6.29-1.49,5.62,0,9.28,2.04,11.02,6.09h.26c1.1-1.89,2.71-3.44,4.65-4.46,2.14-1.12,4.53-1.68,6.95-1.64,3.35-.26,6.65.88,9.13,3.14,2.02,2.08,3.04,5.42,3.04,10.01v23.48h-5.38Z"/>
  <path class="st0" d="M745.05,32.91h5.83l7.88,20.49c1.3,3.3,2.37,6.68,3.21,10.12h.26c.28-1.12.88-3.01,1.79-5.73.9-2.71,3.87-11,8.91-24.88h5.83l-15.43,40.9c-1.05,3.27-2.9,6.24-5.38,8.61-2.12,1.73-4.78,2.63-7.51,2.54-1.66,0-3.31-.18-4.93-.54v-4.31c1.33.27,2.69.4,4.05.39,3.73,0,6.39-2.1,7.99-6.29l2-5.12-14.49-36.18Z"/>
  <g>
    <path class="st0" d="M19.37,42.02c-5.58-2.15-10.38-4.07-10.38-8.4,0-5.02,4.56-6.78,8.83-6.78,4.17-.13,8.23,1.34,11.34,4.11l.39.41,3.29-5.53-.19-.24c-.19-.19-4.78-5.21-14.64-5.21-7.86-.02-16.32,4.13-16.32,13.24,0,8.61,7.77,11.71,14.64,14.42,5.58,2.15,10.4,4.11,10.4,8.42,0,4.82-4.48,6.97-8.91,6.97-5.05-.03-9.89-2-13.52-5.51l-.34-.37-3.96,5.21.22.26c1.32,1.35,2.83,2.51,4.48,3.44,3.97,2.28,8.47,3.47,13.04,3.44,9.45,0,16.32-5.66,16.32-13.45,0-8.72-7.79-11.77-14.68-14.44"/>
    <path class="st0" d="M66.58,20.36c-13.67-.57-25.22,10.05-25.79,23.72-.57,13.67,10.05,25.22,23.72,25.79.69.03,1.38.03,2.07,0,13.67.57,25.22-10.05,25.79-23.72.57-13.67-10.05-25.22-23.72-25.79-.69-.03-1.38-.03-2.07,0M84.3,44.9c.34,9.78-7.31,17.98-17.09,18.32-9.78.34-17.98-7.31-18.32-17.09-.01-.41-.01-.82,0-1.23-.34-9.78,7.31-17.98,17.09-18.32,9.78-.34,17.98,7.31,18.32,17.09.01.41.01.82,0,1.23"/>
    <path class="st0" d="M122.53,2.82c-.97-.12-1.95-.18-2.93-.17-4.95,0-16.49,1.72-16.49,17.67v1.81h-6.24v6.09h6.24v40.66h7.1V28.22h11.93v-6.09h-11.93v-1.81c0-4.2,1.31-11.21,10.03-11.21.72,0,1.44.05,2.15.17l.5.11V2.93l-.37-.11Z"/>
    <path class="st0" d="M156.08,63.07l-.52.11c-.71.14-1.43.21-2.15.19-3.81,0-10.22-1.59-10.22-12.12v-22.9h11.88v-6.22h-11.8v-13.65h-7.15v13.65h-6.31v6.22h6.2v23.68c0,15.69,10.59,18.04,16.92,18.04.94,0,1.87-.06,2.8-.19h.34v-6.8Z"/>
    <path class="st0" d="M170.55,54.74c3.53,3.24,8.12,5.08,12.92,5.19,3.34,0,6.22-1.49,6.22-4.31,0-7.06-23.01-6.13-23.01-21.35,0-8.8,7.88-13.91,18.1-13.91,10.76,0,15.86,5.38,15.86,5.38l-4.31,8.72c-3.26-2.69-7.37-4.14-11.6-4.09-3.06,0-6.03,1.31-6.03,4.31,0,6.69,23.01,5.86,23.01,21.07,0,7.88-6.87,14.21-18.1,14.21-6.79.12-13.36-2.38-18.36-6.97l5.3-8.24Z"/>
    <path class="st0" d="M233.38,20.41c13.65,0,20.99,9.92,20.99,22.45,0,1.4-.28,4.54-.28,4.54h-32.68c.51,7.36,6.84,12.95,14.21,12.53,4.98-.23,9.75-2.05,13.63-5.19l4.56,8.44c-5.35,4.42-12.09,6.82-19.03,6.78-15.69,0-25.42-11.32-25.42-24.78,0-14.57,9.92-24.78,24.02-24.78M242.49,39.33c-.19-6.46-4.18-9.84-9.39-9.84-5.79-.21-10.76,4.08-11.39,9.84h20.77Z"/>
    <path class="st0" d="M266.23,21.53h11.32v8.18c0,1.11-.07,2.23-.19,3.34h.19c2.15-6.78,7.79-12.16,15.07-12.16.72,0,1.44.07,2.15.19v11.6c-.92-.13-1.85-.2-2.78-.19-6.05.02-11.34,4.08-12.92,9.92-.72,2.5-1.07,5.1-1.01,7.71v18.77h-11.77l-.06-47.36Z"/>
    <path class="st0" d="M299.83,21.53h12.44l9.84,29.34c.93,2.78,1.57,5.92,1.66,5.92h.19s.75-3.14,1.68-5.92l9.84-29.34h12.42l-16.98,47.36h-13.91l-17.18-47.36Z"/>
    <path class="st0" d="M374.85,20.41c13.63,0,20.97,9.92,20.97,22.45,0,1.4-.28,4.54-.28,4.54h-32.65c.48,7.36,6.82,12.96,14.19,12.53,4.99-.23,9.77-2.05,13.65-5.19l4.54,8.44c-5.35,4.43-12.09,6.83-19.03,6.78-15.67,0-25.36-11.32-25.36-24.75,0-14.57,9.92-24.78,24.04-24.78M384,39.35c-.17-6.46-4.18-9.84-9.36-9.84-5.77-.19-10.71,4.1-11.32,9.84h20.69Z"/>
  </g>
  <rect class="st0" x="445.82" width="4" height="90.34"/>
</svg>